<?xml version="1.0" encoding="iso-8859-1"?>
<!-- Generator: Adobe Illustrator 19.0.0, SVG Export Plug-In . SVG Version: 6.00 Build 0)  -->
<svg version="1.1" id="Layer_1" xmlns="http://www.w3.org/2000/svg" xmlns:xlink="http://www.w3.org/1999/xlink" x="0px" y="0px"
	 viewBox="0 0 512 512" style="enable-background:new 0 0 512 512;" xml:space="preserve">
<g>
	<g>

	</g>
</g>
<g>
	<g>
		<path d="M210.706,133.118h-33.12c-14.694,0-26.648,11.954-26.648,26.648v192.468c0,14.694,11.954,26.648,26.648,26.648h33.12
			c14.694,0,26.648-11.954,26.648-26.648V159.766C237.354,145.072,225.4,133.118,210.706,133.118z M210.706,352.234h-33.12V159.766
			h33.12l0.017,192.466C210.723,352.232,210.718,352.234,210.706,352.234z" fill="#FFFFFF"/>
	</g>
</g>
<g>
	<g>
		<path d="M334.416,133.118h-33.12c-14.694,0-26.648,11.954-26.648,26.648v192.468c0,14.694,11.954,26.648,26.648,26.648h33.12
			c14.694,0,26.648-11.954,26.648-26.648V159.766C361.064,145.072,349.109,133.118,334.416,133.118z M334.414,352.234h-33.12
			V159.766h33.12l0.017,192.466C334.432,352.232,334.426,352.234,334.414,352.234z" fill="#FFFFFF"/>
	</g>
</g>
<g>
</g>
<g>
</g>
<g>
</g>
<g>
</g>
<g>
</g>
<g>
</g>
<g>
</g>
<g>
</g>
<g>
</g>
<g>
</g>
<g>
</g>
<g>
</g>
<g>
</g>
<g>
</g>
<g>
</g>
</svg>
