<?xml version="1.0" encoding="iso-8859-1"?>
<!-- Generator: Adobe Illustrator 19.0.0, SVG Export Plug-In . SVG Version: 6.00 Build 0)  -->
<svg version="1.1" id="Layer_1" xmlns="http://www.w3.org/2000/svg" xmlns:xlink="http://www.w3.org/1999/xlink" x="0px" y="0px"
	 viewBox="0 0 512 512" style="enable-background:new 0 0 512 512;" xml:space="preserve">
<g>
	<g>
		
	</g>
</g>
<g>
	<g>
		<path d="M378.778,231.852l-164.526-94.99c-8.731-5.041-19.155-5.039-27.886-0.001c-8.731,5.04-13.944,14.069-13.944,24.15v189.98
			c0,10.081,5.212,19.109,13.944,24.15c4.365,2.521,9.152,3.78,13.941,3.78c4.79,0,9.579-1.262,13.944-3.781l164.528-94.989
			c8.73-5.042,13.941-14.07,13.941-24.151C392.72,245.92,387.508,236.892,378.778,231.852z M365.452,257.074l-164.527,94.989
			c-0.201,0.117-0.62,0.358-1.236,0c-0.618-0.357-0.618-0.839-0.618-1.071v-189.98c0-0.232,0-0.714,0.618-1.071
			c0.242-0.14,0.453-0.188,0.633-0.188c0.28,0,0.482,0.117,0.605,0.188l164.526,94.99c0.201,0.116,0.618,0.357,0.618,1.071
			C366.071,256.716,365.652,256.958,365.452,257.074z" fill="#FFFFFF"/>
	</g>
</g>
<g>
	<g>
		<path d="M413.303,134.44c-31.689-40.938-79.326-68.442-130.698-75.461c-7.283-0.997-14.009,4.106-15.006,11.399
			c-0.995,7.291,4.108,14.009,11.399,15.006c44.512,6.081,85.783,29.909,113.232,65.369c2.626,3.392,6.565,5.168,10.546,5.168
			c2.849,0,5.72-0.909,8.146-2.789C416.741,148.628,417.807,140.259,413.303,134.44z" fill="#FFFFFF"/>
	</g>
</g>
<g>
</g>
<g>
</g>
<g>
</g>
<g>
</g>
<g>
</g>
<g>
</g>
<g>
</g>
<g>
</g>
<g>
</g>
<g>
</g>
<g>
</g>
<g>
</g>
<g>
</g>
<g>
</g>
<g>
</g>
</svg>
